<svg xmlns="http://www.w3.org/2000/svg" viewBox="0 0 378.53 88.97"><defs><style>.cls-1{opacity:0.45;}.cls-2{fill:#467c7c;}</style></defs><title>Alcon</title><g id="Layer_2" data-name="Layer 2"><g id="Layer_1-2" data-name="Layer 1"><g class="cls-1"><path class="cls-2" d="M117.27,87.61c-.73,0-1.2.08-1.67.08-8.26,0-16.51,0-24.77,0a2.24,2.24,0,0,1-2.38-1.44C86.64,82.5,84.69,78.8,82.88,75a2.52,2.52,0,0,0-2.61-1.67q-21.75.08-43.5,0a2.55,2.55,0,0,0-2.56,1.53Q31,80.75,27.61,86.5a2.47,2.47,0,0,1-1.7,1.14c-8.25.19-16.5.28-24.75.38A10.1,10.1,0,0,1,0,87.89c.31-.65.53-1.18.81-1.68q20.91-38,41.86-76C46.05,4.11,51.37.43,58.35,0c7.46-.42,12.86,3.43,16.41,9.76,5.56,9.89,10.94,19.88,16.38,29.83q12.64,23.13,25.28,46.28C116.67,86.38,116.9,86.86,117.27,87.61ZM44.78,55.89H72.34l-14-25.63Z"/><path class="cls-2" d="M262.82,31.91c4.08,0,8.16-.14,12.22,0a48.18,48.18,0,0,1,15.51,3.29c6.06,2.37,9,7.13,10,13.22a61.79,61.79,0,0,1,.95,10.67c-.05,4-.65,8-1.07,12a36,36,0,0,1-.83,5.28,12.44,12.44,0,0,1-8.9,9.34,59.77,59.77,0,0,1-12.2,2.54,204.66,204.66,0,0,1-22.42.64,102,102,0,0,1-18.17-2.25c-7.71-1.66-11.65-6.75-12.72-14.59a92.24,92.24,0,0,1-.81-20.45c.92-10.72,5.23-15.47,15.82-18.05a53.14,53.14,0,0,1,14.32-1.67c2.77.09,5.54,0,8.31,0Zm-.28,40.26V72c2.39,0,4.79.09,7.17,0a19.14,19.14,0,0,0,4.46-.72c2.44-.72,4.31-2.25,4.69-4.89a63.33,63.33,0,0,0,.78-9c0-5-2-7.52-6.86-8.75a40.18,40.18,0,0,0-14-.82,39.27,39.27,0,0,0-8.08,1.48c-3.38,1.09-4.86,3.55-4.81,7.1,0,2.49.23,5,.3,7.47.12,4.48,2,7.06,6.5,7.76A90.36,90.36,0,0,0,262.54,72.17Z"/><path class="cls-2" d="M327.08,38.55c.39-.26.8-.49,1.16-.78,4.86-4,10.56-5.67,16.73-5.84s12.59-.22,18.73,1.58c4.05,1.19,7.92,2.7,11,5.72a12.28,12.28,0,0,1,3.79,9.06c0,12.5,0,25,0,37.49,0,1.49-.39,2-1.92,1.94-5.87-.08-11.73-.06-17.6,0-1.34,0-1.78-.39-1.77-1.75.05-9.19,0-18.37,0-27.55,0-1.08-.13-2.16-.22-3.24a6.39,6.39,0,0,0-4.35-5.6,22.1,22.1,0,0,0-5.46-1.43,31.48,31.48,0,0,0-11.8.58c-5.71,1.51-8.92,6.07-8.95,12.58,0,8.09-.05,16.19,0,24.28,0,1.62-.42,2.17-2.1,2.14-5.76-.1-11.52-.08-17.28,0-1.38,0-1.75-.46-1.75-1.78q.06-26.16,0-52.32c0-1.21.27-1.75,1.63-1.73,5.92.06,11.84.05,17.76,0,1.28,0,1.77.4,1.71,1.68-.08,1.6,0,3.2,0,4.79Z"/><path class="cls-2" d="M219.79,60c-.16,3.18-.29,6-.44,8.79-.07,1.35-.23,2.7-.24,4-.08,8.38-5,14.08-13.36,14.8S189.2,89,180.93,88.87a124,124,0,0,1-20.34-2c-7.69-1.35-12.21-6.27-13.26-14.23-.76-5.75-1.83-11.48-1.25-17.3a79.8,79.8,0,0,1,1.83-10.85c1-4.13,3.88-6.8,7.72-8.46a44.53,44.53,0,0,1,14.64-3.49c6.22-.42,12.46-.68,18.69-.61,5.89.06,11.83.22,17.57,1.87a17.53,17.53,0,0,1,8.56,5l-14.7,18.72c-.43-1.43-.81-2.69-1.2-4a6.48,6.48,0,0,0-4.14-4.29c-4.56-1.78-9.31-1.92-14.1-1.55a40,40,0,0,0-6.56.94c-4.37,1.08-6.65,3.74-6.71,8.24a65.63,65.63,0,0,0,.91,9.66A5.36,5.36,0,0,0,172.51,71a17.54,17.54,0,0,0,5.05,1c4.72.14,9.46.18,14.18,0,10.47-.34,19.74-3.71,27.25-11.27C219.14,60.57,219.31,60.43,219.79,60Z"/><path class="cls-2" d="M140.57,49.06V85.57c0,2.12,0,2.12-2.17,2.12-5.65,0-11.3,0-17,0-1.46,0-2-.36-2-1.9q.06-36.75,0-73.51c0-1.6.57-2,2.09-2,5.65.07,11.3.09,16.95,0,1.62,0,2.13.41,2.12,2.09C140.53,24.62,140.57,36.84,140.57,49.06Z"/></g></g></g></svg>