<svg xmlns="http://www.w3.org/2000/svg" viewBox="0 0 519.11 156.28"><defs><style>.cls-1{fill:#467c7c;fill-rule:evenodd;}</style></defs><title>Amazon</title><g id="Layer_2" data-name="Layer 2"><g id="Layer_1-2" data-name="Layer 1"><path class="cls-1" d="M322,122.22c-30,22.22-73.77,34.06-111.47,34.06-52.82,0-100.18-19.49-136.25-51.91-2.73-2.55-.36-6,3.1-4,38.8,22.59,86.7,36.07,136.24,36.07a271.26,271.26,0,0,0,104-21.31c5.1-2,9.29,3.46,4.37,7.1Z"/><path class="cls-1" d="M334.6,107.83c-3.83-4.92-25.5-2.37-35.16-1.09-2.91.36-3.46-2.19-.72-4,17.3-12.2,45.53-8.56,48.81-4.55s-.91,32.42-17.12,45.9c-2.55,2-4.92.91-3.83-1.83C330.23,133.15,338.42,112.93,334.6,107.83Z"/><path class="cls-1" d="M300,17.12V5.28a2.77,2.77,0,0,1,2.92-2.91h52.82a3,3,0,0,1,3.09,2.91v10c0,1.64-1.45,3.83-4,7.47l-27.32,39c10.2-.19,20.94,1.27,30.05,6.37a5.43,5.43,0,0,1,2.73,4.56V85.24c0,1.82-1.82,3.83-3.82,2.74-16.21-8.57-37.89-9.48-55.74.18-1.82.91-3.83-.91-3.83-2.73v-12a13.56,13.56,0,0,1,2-8L330.59,20h-27.5a3,3,0,0,1-3.1-2.92ZM107.47,90.53h-16a3.3,3.3,0,0,1-2.92-2.74V5.46a3,3,0,0,1,3.1-2.91h14.93a3,3,0,0,1,2.92,2.73V16h.36C113.66,5.65,121.13.73,131,.73c10,0,16.39,4.92,20.77,15.3C155.55,5.65,164.48.73,174,.73a22.58,22.58,0,0,1,18.58,9.11c5.1,6.92,4,16.94,4,25.86V87.79a3,3,0,0,1-3.09,2.92H177.59a3.13,3.13,0,0,1-2.91-2.92V44.08c0-3.46.36-12.2-.37-15.48-1.27-5.47-4.73-7.11-9.47-7.11a10.73,10.73,0,0,0-9.65,6.74c-1.64,4.19-1.46,11.11-1.46,15.85V87.79a3,3,0,0,1-3.1,2.92h-16a3.13,3.13,0,0,1-2.91-2.92V44.08c0-9.11,1.46-22.77-9.84-22.77-11.47,0-11.11,13.12-11.11,22.77V87.79a3.2,3.2,0,0,1-3.28,2.74ZM404.36.73c23.86,0,36.79,20.4,36.79,46.45,0,25.13-14.2,45.17-36.79,45.17-23.31,0-36.06-20.4-36.06-45.9C368.11,20.76,381.05.73,404.36.73Zm0,16.94c-11.84,0-12.57,16.21-12.57,26.23s-.18,31.51,12.39,31.51c12.38,0,13.11-17.31,13.11-27.87,0-6.92-.36-15.3-2.37-21.86-1.82-5.83-5.46-8-10.56-8Zm67.58,72.86h-16A3.14,3.14,0,0,1,453,87.61V5.1a3.15,3.15,0,0,1,3.1-2.73H471a3.12,3.12,0,0,1,2.92,2.37V17.3h.36C478.86,6,485.05.73,496.16.73c7.1,0,14.21,2.55,18.76,9.65,4.19,6.56,4.19,17.67,4.19,25.68V88a3,3,0,0,1-3.1,2.55H500A3.33,3.33,0,0,1,497.07,88V43.17c0-9.11,1.09-22.22-10-22.22-3.82,0-7.46,2.55-9.29,6.55-2.18,5.1-2.55,10-2.55,15.67V87.61a3.34,3.34,0,0,1-3.27,2.92Zm-214-39.35c0,6.2.18,11.48-2.92,17.12-2.55,4.56-6.56,7.29-11.11,7.29-6.19,0-9.83-4.74-9.83-11.66,0-13.66,12.2-16.21,23.86-16.21Zm16.21,39.16a3.3,3.3,0,0,1-3.83.37C265,86.34,263.93,84.15,261,80c-8.74,8.93-15.12,11.66-26.41,11.66-13.48,0-24-8.38-24-25,0-13.11,7.1-21.85,17.12-26.22,8.74-3.83,20.95-4.56,30.24-5.65v-2c0-3.83.36-8.38-2-11.66-2-2.92-5.64-4.19-8.92-4.19-6.2,0-11.66,3.1-12.93,9.65-.37,1.46-1.28,2.92-2.74,2.92l-15.48-1.64c-1.27-.37-2.73-1.28-2.37-3.28C217.12,5.65,234.06,0,249.36,0c7.83,0,18,2,24.22,8,7.83,7.29,7.1,17.13,7.1,27.69V60.65c0,7.47,3.1,10.75,6,14.94,1.1,1.46,1.28,3.28,0,4.19-3.46,2.73-9.28,7.83-12.56,10.56ZM47.54,51.18c0,6.2.18,11.48-2.91,17.12-2.55,4.56-6.56,7.29-11.12,7.29-6.19,0-9.83-4.74-9.83-11.66,0-13.66,12.2-16.21,23.86-16.21Zm16,39.16a3.3,3.3,0,0,1-3.83.37c-5.28-4.37-6.37-6.56-9.29-10.75C41.71,88.89,35.34,91.62,24,91.62c-13.48,0-24-8.38-24-25C0,53.55,7.1,44.81,17.12,40.44c8.74-3.83,21-4.56,30.24-5.65v-2c0-3.83.36-8.38-2-11.66-2-2.92-5.64-4.19-8.92-4.19-6.19,0-11.66,3.1-12.93,9.65-.37,1.46-1.28,2.92-2.74,2.92L5.28,27.87C4,27.5,2.55,26.59,2.91,24.59,6.56,5.65,23.5,0,38.8,0c7.83,0,18,2,24.22,8,7.83,7.29,7.11,17.13,7.11,27.69V60.65c0,7.47,3.09,10.75,6,14.94,1.09,1.46,1.27,3.28,0,4.19-3.46,2.73-9.29,7.83-12.57,10.56Z"/></g></g></svg>