<svg xmlns="http://www.w3.org/2000/svg" viewBox="0 0 648.58 51.13"><defs><style>.cls-1{opacity:0.45;}.cls-2{fill:#467c7c;}</style></defs><title>Bausch + Lomb</title><g id="Layer_2" data-name="Layer 2"><g id="Layer_1-2" data-name="Layer 1"><g class="cls-1"><path class="cls-2" d="M23.26,50.33H0V.81H21.64C32,.81,38.86,5.76,38.86,14.1A11.33,11.33,0,0,1,31.4,24.68a11.87,11.87,0,0,1,10,11.6C41.44,45.17,34.38,50.33,23.26,50.33ZM18,11.87h-2.5V21.1H18c4.48,0,6.78-1.57,6.78-4.83S22.31,11.87,18,11.87Zm2.52,18.18h-5v9.22h5c4.6,0,6.3-1.76,6.3-4.81S24.55,30.05,20.49,30.05Z"/><path class="cls-2" d="M87.35,50.33l-2.64-9H70.2l-2.65,9H51.74L68.91.81h17.9L104,50.33Zm-9.9-33.52L73.72,29.37h7.46Z"/><path class="cls-2" d="M139.34,51.13c-13.71,0-24-7-24-23.59V.81h16.54V29.24c0,5.35,2.86,8.74,7.47,8.74s7.46-3.39,7.46-8.74V.81h16.55V27.54C163.35,44.09,153,51.13,139.34,51.13Z"/><path class="cls-2" d="M197.28,51.13a30.24,30.24,0,0,1-19.66-6.91l6.58-10.51c4.61,3.66,8.61,5.37,12.89,5.37,2.37,0,4.06-1,4.06-2.73,0-2.37-1.89-3.25-7.93-5.09-9-2.77-13.57-6.64-13.57-14.78C179.65,5.76,188.06,0,200.07,0c6.44,0,12.75,2.37,16.07,5L209.63,15.8c-3.39-2.44-6.51-3.72-10.17-3.72-3.12,0-4.28,1.35-4.28,2.77s1.16,2.52,7.67,4.41c9,2.57,13.83,6,13.83,15.33C216.68,44.5,209.23,51.13,197.28,51.13Z"/><path class="cls-2" d="M256.31,51.13c-15.05,0-25.84-10.57-25.84-25.35S241.67,0,256.58,0c7.94,0,13.23,3.39,17.5,7.06L266,18.11c-2.78-2.72-5.43-4.61-9.7-4.61-5.5,0-9.57,4.75-9.57,11.87s3.94,12.27,10.52,12.27a14.65,14.65,0,0,0,10-4.34l7.95,10.79A26.44,26.44,0,0,1,256.31,51.13Z"/><path class="cls-2" d="M319.83,50.33V33H307.36v17.3H290.81V.81h16.55V19.06h12.47V.81h16.56V50.33Z"/><path class="cls-2" d="M429.62,50.33V.81H445.5v36.9h16.21V50.33Z"/><path class="cls-2" d="M497.42,51.13c-15.54,0-26.59-10.71-26.59-25.49S482,0,497.56,0s26.59,10.72,26.59,25.5S513,51.13,497.42,51.13Zm0-38c-6,0-10.38,5.22-10.38,12.34S491.52,38,497.56,38s10.37-5.22,10.37-12.34S503.45,13.16,497.42,13.16Z"/><path class="cls-2" d="M574.93,50.33V26.18l-7.67,14.38h-7.53l-7.87-14.38V50.33h-15.6V.81h16.07L563.6,20.56,574,.81h17.44V50.33Z"/><path class="cls-2" d="M630.4,50.33H607.13V.81h21.64C639.16.81,646,5.76,646,14.1a11.33,11.33,0,0,1-7.47,10.58,11.87,11.87,0,0,1,10,11.6C648.58,45.17,641.53,50.33,630.4,50.33Zm-5.29-38.46H622.6V21.1h2.51c4.48,0,6.79-1.57,6.79-4.83S629.45,11.87,625.11,11.87Zm2.51,18.18h-5v9.22h5c4.62,0,6.31-1.76,6.31-4.81S631.69,30.05,627.62,30.05Z"/><polygon class="cls-2" points="407.71 17.53 391 17.53 391 0.81 375 0.81 375 17.53 358.2 17.53 358.2 33.61 375 33.61 375 33.61 375 33.61 375 50.33 391 50.33 391 33.61 391 33.61 391 33.61 407.71 33.61 407.71 17.53"/></g></g></g></svg>