<svg xmlns="http://www.w3.org/2000/svg" viewBox="0 0 372.89 372.88"><defs><style>.cls-1,.cls-5{fill:#8dc6c1;}.cls-1,.cls-2,.cls-3,.cls-4,.cls-6{fill-rule:evenodd;}.cls-2{fill:#467c7c;}.cls-3{fill:#5c9694;}.cls-4{fill:#7fbab6;}.cls-6{fill:#fff;}</style></defs><title>Google</title><g id="Layer_2" data-name="Layer 2"><g id="Layer_1-2" data-name="Layer 1"><path class="cls-1" d="M299.64,99.88A26.64,26.64,0,1,0,273,73.25,26.63,26.63,0,0,0,299.64,99.88ZM111,91.75,192.66,10A34.42,34.42,0,0,1,217.07,0H338.26a34.51,34.51,0,0,1,34.63,34.38V155.81a33.84,33.84,0,0,1-10.22,24.41l-81.58,81.66Z"/><path class="cls-2" d="M281.09,261.88,180.4,362.67a35.32,35.32,0,0,1-24.59,10.21,34.56,34.56,0,0,1-24.41-10.21L10.21,241.48A33.87,33.87,0,0,1,0,217.07a34.66,34.66,0,0,1,10.21-24.58L111,91.75Z"/><path class="cls-3" d="M69,300.29,10.21,241.48A33.87,33.87,0,0,1,0,217.07a34.66,34.66,0,0,1,10.21-24.58L111,91.75l83.31,83.31Z"/><path class="cls-4" d="M360.93,8.39A34.5,34.5,0,0,0,338.26,0H217.07a34.42,34.42,0,0,0-24.41,10L111,91.75l83.31,83.31,84.85-84.85a26.63,26.63,0,0,1,37.49-37.5Z"/><circle class="cls-5" cx="194.21" cy="184.5" r="54.1"/><path class="cls-6" d="M267.92,168.59H196v30.87h41.41c-3.86,19.61-20,30.87-41.41,30.87-25.28,0-45.63-21.07-45.63-47.22S170.69,135.9,196,135.9a43.72,43.72,0,0,1,28.43,10.53l22.46-23.25c-13.69-12.34-31.24-20-50.89-20-42.83,0-77.22,35.59-77.22,79.9S153.14,263,196,263c38.61,0,73.71-29.06,73.71-79.91a68.6,68.6,0,0,0-1.76-14.52Z"/></g></g></svg>