<svg xmlns="http://www.w3.org/2000/svg" viewBox="0 0 647.24 123.89"><defs><style>.cls-1{opacity:0.45;}.cls-2{fill:#467c7c;fill-rule:evenodd;}</style></defs><title>Johnson + Johnson</title><g id="Layer_2" data-name="Layer 2"><g id="Layer_1-2" data-name="Layer 1"><g class="cls-1"><path class="cls-2" d="M293.47,69.64c-1.4,0-1.36-2.68-1-6.81.31-3.69.86-8.56.86-13.74,0-7.1-1.18-13.9-6.5-13.9-6.35,0-13.75,17.74-15.23,20.84-1.92,4.14-2.93,3.4-2.93-.59l-.11-10.19c0-5.32-2.87-7.54-6.42-7.54-7.62,0-12.35,6.95-14,7.32-1.47.29-2.51-.68-3.62-2.07l.52.51c-1.4-2.44-2.88-3.62-6.21-5-3.33-1.26-8.28-.88-8.28,5,0,7.39,7.68,8.57,13.3,8.57v6.8a9.74,9.74,0,0,1-.73,4c-1.62,4-5.59,6.81-8.88,6.81-5.12,0-8.2-2.6-9.65-6.81.93,1.34-1.44-1.62-1.44-6.06,0-3.39-.59-9,4.44-14,4.14-4.28,3.4-6.2-.3-6.2-12.26,0-23.5,14.33-25.72,14.33-4.58,0-6.22-14.33-8.72-14.33-3.58,0-5.85,13-13.33,26.3q-1.29,2.31-2.79,4.59c-3.25,4.88-4.14,2.37-4.17-.89V43.47c0-9-9.31-8-12.85-.15-3.26,7-7.39,14.78-7.39,14.78-2.23,4.45-3.56,3.7-3.71.74V44.65c0-9.75-7.68-8.87-11.52-2.36l-11.9,20.54L124,64.76c-2.23,3.55-3.41,3.55-3.55.89V46.43c0-3-.3-9.46-5.62-9.46-7.1,0-14.34,24.54-18,24.54V39.93c6.21-5.63,11.83-18.34,11.83-28.09,0-3.85-1.19-10.06-6.22-10.06-7.68,0-13.61,9.46-13.61,24.84l-.58,16c-1.7,4.53-4.4,5.3-11.33,5.89-2-7.12-6.23-9.15-10.26-9.15a5.62,5.62,0,0,0-5.91,5.77c0,6.51,5.8,8.57,12,8.61a24.23,24.23,0,0,1-.32,9.12c-1.08,4.27-5.13,7.54-8.69,7.54-6.2-.29-9.75-2.35-11-7.54-2.8-7.62,1.11-18.87,6.76-23.95-12,3.41-23.51,12.57-27.65,18.2-3.4-11.83-4-33.72,0-57.07C16.7,0,0,19.67,0,39.49,0,59.15,11.09,71.56,13.75,73c3.25,1.77,3.7,2.37,2.36,5.32-4.44,4.73-10.94,24.83-10.94,31,0,6.8.59,14.49,7.69,14.49,5.32,0,14.19-11.83,17.74-24.54,2.36-9.46,2.51-27.83,1.62-35.52a4.47,4.47,0,0,1,.12-1c1.07-4.9,9.43-11.09,12.89-11.22a40.89,40.89,0,0,0-.52,11.22c1.85,9,6.88,15.23,15.6,15.23,10.54,0,16.06-6.32,17.41-15.23a29.1,29.1,0,0,0,.33-4.57,46.31,46.31,0,0,0-.24-4.92,23.92,23.92,0,0,0,8.08-2.48c1.92-1.92,2.66-1.77,2.66,3V72c0,3,.15,6.06,3.84,6.06,2.84,0,6.62-7.88,9.7-15.23,2.08-4.93,3.84-9.62,4.79-11.52,2.37-4.29,4.29-4.14,4.29-.45v20c0,5,2.22,7.24,5.91,7.24,3.88,0,8.46-7.63,12.5-15.23,2.42-4.54,4.66-9.09,6.42-12,2.38-4,3.4-4.13,3.4-.15V70.82c0,3.4,1.19,7.24,4,7.24,3.23,0,8-7.81,11.7-15.23H155c-.1-.4,3.13-6.68,5.08-11.67,2.36-6.36,4.12-4.43,4.12.88v17.6c0,5.31,2.21,8.58,5,8.58,6.34,0,10.36-7.74,14.24-15.38,2.09-4.13,4.12-8.24,6.46-11.09,1.14,1.34,1.09,2.21,2.66,6.8.89,3-3.55,5-3.55,11.82,0,5.92,2.67,7.1,5.62,7.1s8.57-4.14,8.57-12.71c0-5.91-1.48-4.73-1.48-8.86,1.48-3.26,10.35-10.94,15.68-11.24-2.67,2.66-4.74,9.17-4.74,13.61a22,22,0,0,0,.47,4.57c1.83,8.82,8.88,15.23,17.86,15.23,9.76,0,15.38-7.69,16.71-15.08l0-.15a44.5,44.5,0,0,0,.28-14,14.54,14.54,0,0,0,6.06-3.7c3.7-3.77,4.87.15,4.87,5.62V70.09c0,5.62,1,8.14,4.3,8.14,3.57,0,5.67-6.49,9.49-15.38a115,115,0,0,1,6.47-13c2.08-4.44,3.4-4,3.4-.15V65.07c0,9.46,2.37,13,6.51,13s8.73-5,11.68-10.94a14.87,14.87,0,0,0,1.43-4.29h-1.94c-2.13,4.49-4.11,6.79-6.87,6.79ZM240.84,47.32c-6.67,0-7.24-4.15-4.72-4.15C241.15,43.17,243.2,47.32,240.84,47.32ZM24.4,105.26c-1.48,4.73-5.32,11.82-8.87,11.82-4.14,0-5-9.46-5-9.46C10.8,97.27,17,80.72,21.74,75.4c3-2.36,3.55-1.48,3.55,2.07.89,5.32,1.18,21.29-.89,27.79ZM22.63,65.94c-1.48,3.25-2.67,8.87-5.92,4.73C9.91,61.5,8.14,40.81,8.14,39.92,8.14,21.29,15.23,9.17,28,4.14c-8.87,20.11-8.58,48.79-5.32,61.8Zm44.2-22c1.74-.71,3.48,1.43,4.68,4.74C64.56,48.27,64,45.13,66.83,43.91Zm35-38.59c2.66,0,3.84,16.57-5,28.39-.75-2.81-.91-8.48-.92-11.19C95.79,22,95.57,5.32,101.87,5.32ZM195,72.74c-2.07.15-3.69-1.47.15-7.39C196.64,63.06,197.68,72.74,195,72.74Z"/><path class="cls-2" d="M95.92,22.52c0,.06,0-.1,0-.63C96,20.37,95.91,21,95.92,22.52Zm549.86,38.1c-.15.37-.33.72-.49,1-2.17,4.5-4.14,6.8-6.9,6.8-1.4,0-1.36-2.67-1-6.8.33-3.7.89-8.58.89-13.75,0-7.1-1.19-13.9-6.51-13.9-6.35,0-13.74,17.74-15.22,20.84-1.92,4.14-2.94,3.4-2.94-.59l-.1-10.2c0-5.32-2.88-7.54-6.42-7.54-7.62,0-12.35,6.95-14,7.32-1.49.29-2.52-.67-3.62-2.07l.51.52c-1.4-2.44-2.89-3.62-6.21-5-3.33-1.26-8.28-.89-8.28,5,0,7.39,7.68,8.57,13.3,8.57v6.8a9.94,9.94,0,0,1-.73,4c-1.62,4-5.59,6.8-8.88,6.8-5.12,0-8.18-2.6-9.65-6.8a9.59,9.59,0,0,1-1.58-5.17c-.6-5-.45-9.91,4.57-14.93,4.14-4.29,3.41-6.22-.29-6.22-12.27,0-23.5,14.35-25.72,14.35-4.59,0-6.21-14.35-8.73-14.35-3.58,0-5.84,13-13.33,26.32-.85,1.52-1.78,3.07-2.77,4.58-3.26,4.88-4.14,2.37-4.17-.88v-3.7l0-19.37c0-9-9.33-8-12.86-.15q-3.56,7.47-7.41,14.78c-2.21,4.44-3.53,3.7-3.68.74V43.46c0-9.76-7.7-8.87-11.54-2.36L470.09,61.65,469,63.57c-2.22,3.54-3.41,3.54-3.56.89V45.24c0-3-.29-9.46-5.61-9.46-7.11,0-14.34,24.53-18,24.53V38.73C448,33.11,453.6,20.4,453.6,10.64c0-3.84-1.19-10-6.21-10-7.69,0-13.61,9.47-13.61,24.84l-.58,16c-1.7,4.53-4.41,5.31-11.34,5.9-2-7.14-6.23-9.15-10.26-9.15a5.62,5.62,0,0,0-5.91,5.76c0,6.52,5.81,8.57,12,8.62a24.5,24.5,0,0,1-.31,9.13c-1.09,4.27-5.14,7.53-8.69,7.53-6.21-.29-9.76-2.37-11-7.53-1.83-7.54,1.1-18.88,6.74-23.95-12,3.4-23.51,12.56-27.64,18.18C375.09,44.2,375.38,24.39,378.64,0c-15.08,0-32.23,18.63-32.23,38.44a50.12,50.12,0,0,0,4.14,18.92c.45,1.18,1.93,3.84-.44,4.87-1.48-.74-9.32-.14-11.83,1a34.33,34.33,0,0,0-3.7-17.89c-2.65-1.19-4,.15-5.76,2.22A24.41,24.41,0,0,1,331,59c-3.26-3.85-8-5.77-14.06-6.06-2.94,0-8.7,1.63-8.7,6.5,0,7.1,7,10.06,22.17,10.06,1.92,0,3.4.74,2.95,3.7-.14,2.5,0,3.25.59,3.69,0,0,2.51-.44,2.88-2.66,1.26-8.27,3.33-7.4,10-8.13,7.25,0,8.13-1.33,12.57,4.28,1.91,2.22,2.73,3.18,1.32,5.62-5.32,8.57-10.65,23.73-10.65,29.93,0,6.8.6,16.78,7.7,16.78,5.32,0,14.19-11.83,17.74-24.54,2.36-9.46,2.51-27.82,1.62-35.51a4.77,4.77,0,0,1,.11-1c1.08-4.92,9.45-11.11,12.9-11.24a41.87,41.87,0,0,0-.53,11.24c1.41,11.08,6.89,15.22,15.6,15.22,10.54,0,16.06-6.33,17.42-15.22a30.91,30.91,0,0,0,.32-4.59,43.49,43.49,0,0,0-.25-4.91,24.05,24.05,0,0,0,8.1-2.48c1.92-1.93,2.65-1.77,2.65,2.95V70.81c0,3,.15,6,3.85,6,2.83,0,6.61-7.88,9.7-15.22,2.08-4.94,3.83-9.63,4.79-11.53,2.36-4.29,4.28-4.14,4.28-.44v20c0,5,2.23,7.25,5.91,7.25,3.89,0,8.46-7.63,12.51-15.22,2.43-4.56,4.65-9.1,6.42-12,2.37-4,3.4-4.14,3.4-.15v20.1c0,3.4,1.18,7.25,4,7.25,3.22,0,8-7.82,11.69-15.22H500C499.87,61.24,503.1,55,505,50c2.38-6.35,4.12-4.43,4.12.89l0,10.8v6.79c0,5.33,2.22,8.58,5,8.58,6.34,0,10.36-7.73,14.23-15.37,2.09-4.14,4.12-8.24,6.46-11.09,1.15,1.33,1.09,2.21,2.67,6.8.88,3-3.56,5-3.56,11.82,0,5.92,2.67,7.1,5.62,7.1s8.58-4.14,8.58-12.71c0-5.92-1.48-4.74-1.48-8.87,1.48-3.26,10.34-10.94,15.68-11.24-2.66,2.67-4.74,9.17-4.74,13.61a22.09,22.09,0,0,0,.47,4.58C560,70.47,567,76.87,576,76.87c9.76,0,15.38-7.69,16.71-15.08l0-.14a44.54,44.54,0,0,0,.29-14,14.63,14.63,0,0,0,6.05-3.7c3.7-3.77,4.88.15,4.88,5.62V68.89c0,5.62,1,8.14,4.29,8.14,3.57,0,5.67-6.49,9.49-15.37a114.3,114.3,0,0,1,6.47-13c2.08-4.44,3.4-4,3.4-.15V63.87c0,9.46,2.37,13,6.51,13s8.72-5,11.67-10.94a15.15,15.15,0,0,0,1.44-4.28c.21-2-1-1.76-1.44-1.05Zm-60-14.49c-6.67,0-7.25-4.14-4.73-4.14C586.07,42,588.12,46.13,585.76,46.13ZM329,66.24c-6.05,0-12.27-2.82-12.27-6.07s1.63-4.14,4.88-3.1c8.58,4.28,7.39,6.35,7.39,9.17Zm25.43-28.09c0-18.63,7.1-30.76,19.82-35.78-8.87,20.11-8.58,48.79-5.33,61.8-1.48,3.25-2.65,8.87-5.92,4.72-6.78-9.16-8.57-29.86-8.57-30.74Zm14.93,65.92c-1.47,4.73-5.31,11.84-8.86,11.84-4.14,0-5-9.47-5-9.47.29-10.35,6.51-26.9,11.23-32.22,3-2.37,3.56-1.48,3.56,2.07C371.09,81.62,371.39,97.57,369.31,104.07Zm42.44-61.34c1.74-.71,3.48,1.42,4.68,4.74C409.48,47.09,408.93,44,411.75,42.73Zm35-38.59c2.65,0,3.85,16.56-5,28.39-.75-2.81-.91-8.48-.93-11.19C440.72,20.93,440.48,4.14,446.79,4.14Zm93.14,67.42c-2.07.14-3.7-1.48.16-7.39C541.56,61.89,542.6,71.56,539.93,71.56Z"/></g></g></g></svg>