<svg xmlns="http://www.w3.org/2000/svg" viewBox="0 0 2499.55 820.68"><defs><style>.cls-1{fill:#467c7c;opacity:0.45;}</style></defs><title>Schick_1</title><g id="Layer_2" data-name="Layer 2"><g id="Layer_1-2" data-name="Layer 1"><path class="cls-1" d="M1389.22,7.59c-9.39,4.69-21.52,14.47-28.17,23.86-10.17,13.7-11.74,19.56-11.74,40.3s1.57,26.6,11.74,40.3c14.87,20.73,29.73,28.17,56.73,28.17,32.86,0,53.6-13.7,66.51-43.82,14.48-35.21-2-72.38-39.91-89.6-20.34-9.39-33.64-9-55.16.79ZM169.74,11.11c-41.87,7-77.08,25-107.59,54.77-23.48,22.69-31.3,35.6-43.43,70-10.17,28.56-10.17,83.73,0,115.81,20.34,64.55,46.56,90,162,159.23,128.72,76.68,142.41,90.38,138.5,138.89C316.06,589,289.85,616,244.85,625c-24.25,5.08-63.38.39-79.81-9.78-4.69-3.13-10.56-5.48-12.52-5.48-2.35,0-14.87-7.43-28.17-16.43C88.75,568.62,61,535.76,40.63,493.89c-9.39-19.95-19.17-37.16-21.13-38.73-2.35-1.17-7.82-.39-12.13,2-7.82,4.3-7.82,7-7,100.94L1.5,654.69l10.57,1.18c7.82.78,11.73-1.57,17.21-10.57,3.91-6.65,12.91-14.86,19.56-18,12.13-5.87,13.7-5.48,46.56,10.17,48.12,22.3,82.16,30.51,128.72,30.9,72,0,133.41-20.73,171-58.29,21.91-22.3,30.12-35.21,41.86-66.9,8.61-22.69,9.39-112.29,1.17-133C424.43,375.35,415,360.09,397,341.7c-22.3-22.3-24.64-23.86-78.63-57.51-51.65-32.47-49.3-30.91-91.94-56.34-48.91-29.34-72.38-54-78.64-82.16-6.65-29.34-.39-49.29,22.3-70.42,23.08-21.52,52.81-28.56,91.16-21.13,34.42,6.65,68.07,25,88.41,47.73,20,22.31,42.65,64.17,47.74,89.21,1.17,5.47,3.91,12.12,6.26,14.47,5.08,6.65,28.56,6.65,31.29,0,1.18-2.74,2.35-43.42,2.35-90.37.78-60.25-.39-86.86-3.91-90.77-6.26-7.43-18.78-7-21.91,1.17C404.09,47.1,375.92,53,345,40.06c-8.22-3.52-19.95-8.61-26.6-11.35-39.91-17.6-104.86-25-148.67-17.6Zm683.49,8.61c-7.44,7.43-5.87,9.78,10.56,19.17,8.22,4.69,17.21,12.52,19.56,18,3.13,6.65,4.3,90.77,4.3,279.35,0,299.29,1.18,287.55-25.43,298.51-9.39,3.91-13.69,8.61-13.69,14.08,0,7.83,1.17,7.83,102.9,7,88-1.18,102.5-2,102.5-7,0-3.13-6.65-9.39-14.87-13.69-10.56-5.48-15.65-11.74-18.38-21.52-5.09-18-5.09-271.52,0-289.51,5.47-20.74,30.51-43,50.46-45.78,22.7-3.13,36.78,3.91,46.95,23.87,7.83,16.43,8.22,21.52,8.22,162.75,0,129.11-.78,146.72-6.65,156.5-3.52,6.26-10.57,12.13-15.26,13.3-11.35,3.13-20,17.21-12.52,20,2.74,1.18,48.51,1.57,100.94,1.18,80.59-1.18,95.85-2,95.85-7,0-2.74-6.65-9-14.86-13.3-10.57-5.48-15.65-11.34-18.39-21.52-2.35-8.21-3.92-74.33-3.92-154.93-.39-154.93-2.73-176.84-22.3-208.53-7.82-12.91-17.21-21.12-32.47-29.34-20-10.17-24.26-10.95-56.73-9.78-42.64,1.57-71.59,13.69-97.81,41.47-11.73,12.13-18.78,16.83-21.51,14.09-2.35-2.35-4.31-51.26-4.7-126.76L1014.81,17,936.56,15.8c-57.9-.78-79.81.39-83.33,3.92Z"/><path class="cls-1" d="M1924.43,20.89c-3.91,4.69-3.91,7,0,11.74,2.74,3.13,7,5.86,9.78,5.86S1944,44,1949.47,50.62l10.17,12.13V337.4c0,272.3,0,275.43-8.21,285.6-4.31,5.48-11.35,10.17-15.26,10.17-9,0-17.22,10.18-14.09,17.61,2,5.09,16.44,5.87,102.12,5.87,97.81,0,99.76,0,99.76-8.22,0-5.08-4.3-9.78-13.69-13.3-7.44-3.13-15.26-9.39-17.61-13.3-5.08-9.78-5.47-173.71-.39-171.75,3.13,1.17,55.17,76.29,55.17,79.81,0,.78,10.17,16,23.08,34,12.52,18,23.47,34.43,24.26,36.39s17.21,27,36.38,55.56c18.78,28.16,33.65,54,32.47,56.72-2.34,6.26-32.47,8.22-188.57,14.48-51.65,2-133.41,5.48-181.93,7.43-48.51,2.35-150.62,7-226.91,10.18-76.3,3.52-188.19,8.6-248.44,11.73-60.25,3.52-128.72,5.87-152.58,5.87-23.48,0-69.25,2-101.72,4.31-32.09,1.95-100.94,5.47-152.59,7.43-124,4.3-264.08,10.56-401,17.6-61.43,3.53-129.89,5.87-152.59,5.87s-62.2,2-88,3.92c-25.82,2.34-97,5.86-158.45,7.82-132.24,4.3-128.33,4.3-103.68,7.82,11,2,553.6,3.53,1206.18,3.53,1072.38.39,1186.23,0,1186.23-5.87,0-3.13-5.87-13.7-12.52-23.09-7-9.78-20.74-29-30.52-43.42-9.78-14.09-27.78-39.91-39.9-57.51-12.52-17.61-28.17-40.69-35.22-50.87s-23.08-32.86-35.21-50.07c-12.52-16.83-22.69-32.08-22.69-33.26s-5.08-9-11.34-16.82c-12.13-15.65-36.39-50.08-72-104.07-12.91-19.56-28.56-41.47-34.82-49.3-5.87-7.82-11-17.6-11-21.51,0-9.39,92.73-100.55,112.68-110.72,9-4.7,20.34-8.22,25.43-8.22,11.35,0,20.34-9.39,16.82-17.61-3.13-9-169.79-9-172.92,0-3.52,8.61,5.47,17.61,18,17.61,25.43,0,30.52,27.78,10.57,55.56-14.09,20.34-108.38,120.5-113.07,120.5-2,0-3.13-89.6-3.13-198.75,0-149.45-1.17-199.92-4.7-203.44-3.12-3.13-26.6-4.7-79.81-4.7-61.81,0-75.9,1.17-79.81,5.87Z"/><path class="cls-1" d="M612.62,223.94c-34.82,15.26-36.78,16.82-63.78,43.43-28.16,27.78-46.55,59.86-59.46,102.5-11.35,37.56-11.74,107.59-.79,148.67,17.22,65,53.21,113.07,103.68,138.11,26.21,12.91,29,13.3,72.38,13.69,34.82,0,49.3-1.56,64.55-7.43,29.74-11,70-39.52,90-63,15.65-18,17.6-22.3,13.69-28.95-4.69-9.39-17.6-11-22.3-3.13-6.26,10.17-32.08,26.6-54.38,34.43-25.43,9-42.65,6.65-75.12-9.39-53.21-26.22-85.29-128.72-74.33-238.66,8.21-84.5,42.64-127.54,89.59-112.28,19.95,6.65,23.08,14.47,23.08,54.38S730,357.74,752.68,366C791.8,380,829,353.83,829,312.36c0-38.34-21.52-68.86-62.21-88.81-20-10.17-26.21-11-72.77-12.13-50.47-1.17-51.25-.78-81.37,12.52Zm1075.9-2c-44.21,18.78-83,54-107.59,97.42-19.18,34-33.65,101.33-30.13,138.89,3.13,31.69,11,70.42,17.61,86.86,10.17,23.86,17.6,39.12,22.69,44.21,2.34,2.73,4.69,6.65,4.69,8.21,0,9,45.78,48.12,69.25,59.47,25,12.13,29,12.91,71.6,12.91,37.95.39,48.51-1.17,68.07-8.61,36-14.08,76.68-44.21,96.64-72,6.26-8.61,7-12.52,3.52-18.78-5.87-11-12.52-9.79-32.08,6.26-36.78,30.9-76.68,37.16-115,18.38-12.12-5.86-27-17.21-33.25-25-12.91-16.43-34.82-58.68-34.82-67.68,0-3.13-2.74-16-5.87-28.56-8.61-32.08-7.82-126.76.78-160.8,14.48-56.34,51.26-86.46,86.47-70.81,17.6,7.43,20.73,16.43,21.91,57.9,1.17,47.34,8.21,59.86,38,66.9,24.25,5.87,41.86.39,58.29-18C1899.39,337.4,1901,332.7,1901,312c0-39.12-20.35-68.08-62.6-88.81-19.56-9.78-25.82-10.57-72.38-11.35-48.12-.78-52.43-.39-77.46,10.17Zm-361.9,11c.78,7.82,3.52,11.34,9.78,12.13,5.09.78,12.52,5.87,16.83,11.34,7.43,9.78,7.82,15.26,7.82,180.36,0,165.5-.39,170.58-8.22,183.1-4.3,7.43-10.95,13.3-14.86,13.3-8.61,0-16,7.44-16,16.44,0,6.65,6.26,7,97.81,7s97.81-.39,97.81-7a16.54,16.54,0,0,0-16.44-16.44c-16,0-16.82-9-18.78-213.22l-1.95-195.62-77.47-1.17-77.46-.78Z"/></g></g></svg>