<svg xmlns="http://www.w3.org/2000/svg" viewBox="0 0 773.54 149.26"><defs><style>.cls-1{fill:#467c7c;}</style></defs><title>Walmart</title><g id="Layer_2" data-name="Layer 2"><g id="Layer_1-2" data-name="Layer 1"><path class="cls-1" d="M591.59,107.39a20.86,20.86,0,0,1-.74,6c-2.3,7.64-10.21,14.1-20.11,14.1-8.25,0-14.8-4.68-14.8-14.58,0-15.15,16.67-19.34,35.66-19.23v13.75ZM621.36,81c0-25-10.67-47-46.74-47-18.51,0-33.21,5.2-41.23,9.83l5.88,20.08a60.44,60.44,0,0,1,30.07-8.45c18.29-.06,21.29,10.36,21.29,17v1.58C550.75,74,525.54,87.84,525.54,116c0,17.19,12.84,33.29,35.16,33.29,13.71,0,25.2-5.47,32.07-14.25h.68s4.55,19.06,29.66,11.77a162.14,162.14,0,0,1-1.74-26.56V81M0,0S26.06,106.79,30.22,124.12c4.86,20.23,13.6,27.67,38.82,22.65L85.31,80.56c4.12-16.45,6.89-28.18,9.54-44.9h.47c1.86,16.9,4.51,28.5,7.91,45,0,0,6.62,30.05,10,45.84s12.87,25.72,37.57,20.31L189.58,0h-31.3L145,63.46c-3.56,18.46-6.79,32.9-9.28,49.79h-.44c-2.26-16.74-5.15-30.59-8.76-48.59L112.78,0H80.17L65.42,63c-4.17,19.16-8.08,34.63-10.56,51h-.45c-2.55-15.38-5.94-34.82-9.6-53.36,0,0-8.76-45.09-11.84-60.63H0M248.78,107.39a20.52,20.52,0,0,1-.75,6c-2.3,7.64-10.21,14.1-20.11,14.1-8.25,0-14.79-4.68-14.79-14.58,0-15.15,16.67-19.34,35.65-19.23v13.75ZM278.55,81c0-25-10.68-47-46.74-47-18.52,0-33.22,5.2-41.24,9.83l5.87,20.08a60.44,60.44,0,0,1,30.07-8.45c18.31-.06,21.3,10.36,21.3,17v1.58C207.92,74,182.72,87.84,182.72,116c0,17.19,12.83,33.29,35.14,33.29,13.73,0,25.21-5.47,32.09-14.25h.67s4.56,19.06,29.67,11.77a162.14,162.14,0,0,1-1.74-26.56V81m49.68,34.62V0H298.42V146.77h29.81V115.61M718.18,0V108.27c0,14.94,2.82,25.39,8.82,31.78,5.26,5.59,13.9,9.21,24.27,9.21,8.81,0,17.48-1.68,21.57-3.2l-.38-23.28a45.81,45.81,0,0,1-11.32,1.34c-10.16,0-13.56-6.5-13.56-19.9V62.79h26V34.71h-26V0h-29.4M641.24,36.52V146.77H672V90.32a41.22,41.22,0,0,1,.67-8.14C674.93,70.34,684,62.79,697,62.79a57.48,57.48,0,0,1,8.87.78V34.71a29.42,29.42,0,0,0-6.77-.68c-11.47,0-24.53,7.4-30,23.29h-.83V36.52h-27m-292.14,0V146.77h30V82.12a26,26,0,0,1,1.41-9C383,66.58,389,59,398.68,59c12.09,0,17.74,10.22,17.74,25v62.83h29.93V81.32a30.43,30.43,0,0,1,1.26-8.94c2.45-7.4,9-13.43,18-13.43,12.25,0,18.14,10,18.14,27.4v60.41h29.95V81.82c0-34.25-17.39-47.8-37-47.8a39.93,39.93,0,0,0-21.76,6,46.66,46.66,0,0,0-14,13.74h-.45C435.75,41.86,424.61,34,410.1,34c-18.65,0-27,9.46-32.11,17.47h-.45v-15H349.1"/></g></g></svg>